<?xml version="1.0" encoding="UTF-8"?>
<level>
  <owner>Fistachka</owner>
  <repo>pozvoni2</repo>
  <version>v1.0.1</version>
  <next number="1" owner="Fistachka" repo="pozvoni3"/>
  <readme>
    <ru>a4d9907629972e536470dcdf570cc0759e0e464271e95a5107f96c88d351e842</ru>
    <en>a2113d00d78a405f4c066b078be1a459077feb5979cd40aaa7be0479846853c5</en>
  </readme>
  <license>b1b99f5538d1fd3702219bff50c665196dfa42f6ee755c37fe41a6178d6bc6e5</license>
  <exercise number="1">
    <scale>minor</scale>
    <cadenceVariant>harmonic</cadenceVariant>
    <bpm>162</bpm>
    <lowestNote>7</lowestNote>
    <tonalities>10</tonalities>
    <video name="1.mp4" size="1009600" type="video/mp4" volume="0.5">6dcd2c14d91f1b23650d27db6a731ec60034765f54223d4202a4299d0966c3e7</video>
    <notes>
      <note number="1" values="58" ticks="114" durationTicks="26" ppq="96" velocity="0.764"/>
      <note number="2" values="58" ticks="163" durationTicks="48" ppq="96" velocity="0.772"/>
      <note number="3" values="48" ticks="211" durationTicks="47" ppq="96" velocity="0.827"/>
      <note number="4" values="38" ticks="259" durationTicks="95" ppq="96" velocity="0.772"/>
      <note number="5" values="28" ticks="355" durationTicks="21" ppq="96" velocity="0.827"/>
      <note number="6" values="38" ticks="378" durationTicks="24" ppq="96" velocity="0.827"/>
      <note number="7" values="18" ticks="402" durationTicks="95" ppq="96" velocity="0.827"/>
    </notes>
  </exercise>
  <exercise number="2">
    <scale>minor</scale>
    <cadenceVariant>harmonic</cadenceVariant>
    <bpm>162</bpm>
    <lowestNote>7</lowestNote>
    <tonalities>10</tonalities>
    <video name="2.mp4" size="693882" type="video/mp4" volume="0.5">bb67ebe16af3f0d7a31abb6ef41ed4bc9a033dd9d5ce8f6f2dd453d56ac6cd59</video>
    <notes>
      <note number="1" values="18" ticks="49" durationTicks="37" ppq="96" velocity="0.764"/>
      <note number="2" values="28" ticks="91" durationTicks="32" ppq="96" velocity="0.776"/>
      <note number="3" values="38" ticks="136" durationTicks="42" ppq="96" velocity="0.827"/>
      <note number="4" values="18" ticks="185" durationTicks="49" ppq="96" velocity="0.778"/>
      <note number="5" values="38" ticks="264" durationTicks="25" ppq="96" velocity="0.827"/>
      <note number="6" values="58" ticks="288" durationTicks="24" ppq="96" velocity="0.827"/>
      <note number="7" values="78" ticks="313" durationTicks="50" ppq="96" velocity="0.827"/>
      <note number="8" values="68" ticks="371" durationTicks="62" ppq="96" velocity="0.827"/>
    </notes>
  </exercise>
  <exercise number="3">
    <scale>minor</scale>
    <cadenceVariant>harmonic</cadenceVariant>
    <bpm>162</bpm>
    <lowestNote>7</lowestNote>
    <tonalities>10</tonalities>
    <video name="3.mp4" size="1007039" type="video/mp4" volume="0.5">b5a4747c458ca5d9675bc08759ba1a9b6e32e041cab24e3ba16fcdc305be1507</video>
    <notes>
      <note number="1" values="68" ticks="310" durationTicks="29" ppq="96" velocity="0.764"/>
      <note number="2" values="68" ticks="354" durationTicks="36" ppq="96" velocity="0.772"/>
      <note number="3" values="58" ticks="397" durationTicks="47" ppq="96" velocity="0.827"/>
      <note number="4" values="48" ticks="445" durationTicks="45" ppq="96" velocity="0.772"/>
      <note number="5" values="38" ticks="496" durationTicks="30" ppq="96" velocity="0.827"/>
      <note number="6" values="48" ticks="533" durationTicks="30" ppq="96" velocity="0.827"/>
      <note number="7" values="28" ticks="573" durationTicks="147" ppq="96" velocity="0.827"/>
    </notes>
  </exercise>
  <exercise number="4">
    <scale>minor</scale>
    <cadenceVariant>harmonic</cadenceVariant>
    <bpm>162</bpm>
    <lowestNote>7</lowestNote>
    <tonalities>10</tonalities>
    <video name="4.mp4" size="846813" type="video/mp4" volume="0.5">f81e5effdb5fd5dfd598d65f138e943abfbbc9cf2493abff12c9d219bb4a15a7</video>
    <notes>
      <note number="1" values="7" ticks="281" durationTicks="37" ppq="96" velocity="0.764"/>
      <note number="2" values="18" ticks="323" durationTicks="32" ppq="96" velocity="0.772"/>
      <note number="3" values="28" ticks="368" durationTicks="42" ppq="96" velocity="0.827"/>
      <note number="4" values="7" ticks="417" durationTicks="49" ppq="96" velocity="0.772"/>
      <note number="5" values="28" ticks="496" durationTicks="39" ppq="96" velocity="0.827"/>
      <note number="6" values="48" ticks="541" durationTicks="24" ppq="96" velocity="0.827"/>
      <note number="7" values="68" ticks="588" durationTicks="66" ppq="96" velocity="0.827"/>
      <note number="8" values="58" ticks="660" durationTicks="108" ppq="96" velocity="0.827"/>
    </notes>
  </exercise>
  <exercise number="5">
    <scale>minor</scale>
    <cadenceVariant>harmonic</cadenceVariant>
    <bpm>162</bpm>
    <lowestNote>7</lowestNote>
    <tonalities>10</tonalities>
    <video name="5.mp4" size="742366" type="video/mp4" volume="0.5">83c5b7cb398c00101e8d35bef0c0aba1faafd2af9b9365dbfd9f0fc1171439a4</video>
    <notes>
      <note number="1" values="58" ticks="190" durationTicks="26" ppq="96" velocity="0.764"/>
      <note number="2" values="58" ticks="237" durationTicks="48" ppq="96" velocity="0.772"/>
      <note number="3" values="48" ticks="286" durationTicks="47" ppq="96" velocity="0.827"/>
      <note number="4" values="38" ticks="335" durationTicks="62" ppq="96" velocity="0.772"/>
      <note number="5" values="28" ticks="401" durationTicks="28" ppq="96" velocity="0.827"/>
      <note number="6" values="38" ticks="440" durationTicks="24" ppq="96" velocity="0.827"/>
      <note number="7" values="18" ticks="480" durationTicks="95" ppq="96" velocity="0.827"/>
    </notes>
  </exercise>
  <exercise number="6">
    <scale>minor</scale>
    <cadenceVariant>harmonic</cadenceVariant>
    <bpm>162</bpm>
    <lowestNote>7</lowestNote>
    <tonalities>10</tonalities>
    <video name="6.mp4" size="774944" type="video/mp4" volume="0.5">fef7ea947c5f00a35dde216d2b7cbb7c50e751d5e986687e135783fff70b4848</video>
    <notes>
      <note number="1" values="18" ticks="189" durationTicks="37" ppq="96" velocity="0.764"/>
      <note number="2" values="28" ticks="237" durationTicks="38" ppq="96" velocity="0.772"/>
      <note number="3" values="38" ticks="285" durationTicks="42" ppq="96" velocity="0.827"/>
      <note number="4" values="18" ticks="331" durationTicks="49" ppq="96" velocity="0.772"/>
      <note number="5" values="38" ticks="380" durationTicks="41" ppq="96" velocity="0.827"/>
      <note number="6" values="58" ticks="428" durationTicks="46" ppq="96" velocity="0.827"/>
      <note number="7" values="78" ticks="477" durationTicks="47" ppq="96" velocity="0.827"/>
      <note number="8" values="68" ticks="532" durationTicks="99" ppq="96" velocity="0.827"/>
    </notes>
  </exercise>
  <exercise number="7">
    <scale>minor</scale>
    <cadenceVariant>harmonic</cadenceVariant>
    <bpm>162</bpm>
    <lowestNote>18</lowestNote>
    <tonalities>10</tonalities>
    <video name="7.mp4" size="478271" type="video/mp4" volume="0.5">f3c4bcd4c8befe58c0e24afeeb52d353a2f30c204152e89eac15ae88d2905809</video>
    <notes>
      <note number="1" values="68" ticks="183" durationTicks="27" ppq="96" velocity="0.764"/>
      <note number="2" values="68" ticks="231" durationTicks="38" ppq="96" velocity="0.772"/>
      <note number="3" values="188" ticks="279" durationTicks="28" ppq="96" velocity="0.827"/>
      <note number="4" values="188" ticks="325" durationTicks="49" ppq="96" velocity="0.772"/>
      <note number="5" values="78" ticks="374" durationTicks="38" ppq="96" velocity="0.827"/>
      <note number="6" values="68" ticks="420" durationTicks="32" ppq="96" velocity="0.827"/>
      <note number="7" values="58" ticks="451" durationTicks="32" ppq="96" velocity="0.827"/>
      <note number="8" values="58" ticks="503" durationTicks="99" ppq="96" velocity="0.827"/>
    </notes>
  </exercise>
  <exercise number="8">
    <scale>minor</scale>
    <cadenceVariant>harmonic</cadenceVariant>
    <bpm>162</bpm>
    <lowestNote>7</lowestNote>
    <tonalities>10</tonalities>
    <video name="8.mp4" size="469933" type="video/mp4" volume="0.5">73c2e5e86e897fbc9f85a8edd7beba15f7c305d22477c6d751cbb5e161585402</video>
    <notes>
      <note number="1" values="58" ticks="49" durationTicks="38" ppq="96" velocity="0.764"/>
      <note number="2" values="58" ticks="107" durationTicks="28" ppq="96" velocity="0.772"/>
      <note number="3" values="68" ticks="145" durationTicks="25" ppq="96" velocity="0.827"/>
      <note number="4" values="68" ticks="193" durationTicks="46" ppq="96" velocity="0.772"/>
      <note number="5" values="58" ticks="240" durationTicks="38" ppq="96" velocity="0.827"/>
      <note number="6" values="48" ticks="286" durationTicks="32" ppq="96" velocity="0.827"/>
      <note number="7" values="38" ticks="336" durationTicks="32" ppq="96" velocity="0.827"/>
      <note number="8" values="38" ticks="392" durationTicks="99" ppq="96" velocity="0.827"/>
    </notes>
  </exercise>
  <exercise number="9">
    <scale>chromaticminor</scale>
    <cadenceVariant>harmonic</cadenceVariant>
    <bpm>162</bpm>
    <lowestNote>7</lowestNote>
    <tonalities>10</tonalities>
    <video name="9.mp4" size="699155" type="video/mp4" volume="0.5">6f5f3ace99f15f4508deb3de05d475afe8c5b23fcfd90da4f54f2c43ead93d83</video>
    <notes>
      <note number="1" values="28" ticks="343" durationTicks="27" ppq="96" velocity="0.764"/>
      <note number="2" values="28" ticks="391" durationTicks="38" ppq="96" velocity="0.772"/>
      <note number="3" values="38" ticks="439" durationTicks="28" ppq="96" velocity="0.827"/>
      <note number="4" values="28" ticks="485" durationTicks="49" ppq="96" velocity="0.772"/>
      <note number="5" values="198" ticks="545" durationTicks="38" ppq="96" velocity="0.827"/>
      <note number="6" values="28" ticks="589" durationTicks="32" ppq="96" velocity="0.827"/>
      <note number="7" values="58" ticks="633" durationTicks="133" ppq="96" velocity="0.827"/>
    </notes>
  </exercise>
  <exercise number="10">
    <scale>minor</scale>
    <cadenceVariant>harmonic</cadenceVariant>
    <bpm>162</bpm>
    <lowestNote>7</lowestNote>
    <tonalities>10</tonalities>
    <video name="10.mp4" size="1379078" type="video/mp4" volume="0.5">2506e96d003e1156056852eed2b16d0779ef07fcdae47fd4ba7764a30702a72e</video>
    <notes>
      <note number="1" values="58" ticks="418" durationTicks="26" ppq="96" velocity="0.764"/>
      <note number="2" values="58" ticks="467" durationTicks="48" ppq="96" velocity="0.772"/>
      <note number="3" values="48" ticks="515" durationTicks="47" ppq="96" velocity="0.827"/>
      <note number="4" values="38" ticks="563" durationTicks="95" ppq="96" velocity="0.772"/>
      <note number="5" values="28" ticks="659" durationTicks="38" ppq="96" velocity="0.827"/>
      <note number="6" values="38" ticks="707" durationTicks="37" ppq="96" velocity="0.827"/>
      <note number="7" values="18" ticks="751" durationTicks="95" ppq="96" velocity="0.827"/>
    </notes>
  </exercise>
</level>
